<?xml version="1.0" standalone="no"?><!DOCTYPE svg PUBLIC "-//W3C//DTD SVG 1.1//EN" "http://www.w3.org/Graphics/SVG/1.1/DTD/svg11.dtd"><svg t="1753239764638" class="icon" viewBox="0 0 1024 1024" version="1.1" xmlns="http://www.w3.org/2000/svg" p-id="4998" xmlns:xlink="http://www.w3.org/1999/xlink" width="200" height="200"><path d="M959.3232 726.5152H64.6768V178.0944h894.6464v548.4208z m-869.0464-25.6h843.4464V203.6944H90.2768v497.2208z" fill="#ED6D2D" p-id="4999"></path><path d="M77.4768 611.5184h869.0464v25.6H77.4768zM868.7776 682.008c-6.4528 0-11.7024-5.2496-11.7024-11.7024 0-6.4544 5.2496-11.704 11.7024-11.704s11.7024 5.2496 11.7024 11.704c0.0016 6.4512-5.248 11.7024-11.7024 11.7024zM901.9712 682.008c-6.4528 0-11.7024-5.2496-11.7024-11.7024 0-6.4544 5.2496-11.704 11.7024-11.704s11.7024 5.2496 11.7024 11.704c0 6.4512-5.2496 11.7024-11.7024 11.7024zM551.7904 833.096h-80.408v-54.5008l-129.5232-76.3504h340.2816l-130.3504 76.8368v54.0144z m-54.808-25.6h29.208v-49.0144h10.1344l51.9744-30.6368h-152.6l61.2832 36.1248v43.5264z" fill="#ED6D2D" p-id="5000"></path><path d="M425.1328 808.9824h173.7328v24.1216H425.1328z" fill="#ED6D2D" p-id="5001"></path></svg>