<?xml version="1.0" standalone="no"?><!DOCTYPE svg PUBLIC "-//W3C//DTD SVG 1.1//EN" "http://www.w3.org/Graphics/SVG/1.1/DTD/svg11.dtd"><svg t="1753319011962" class="icon" viewBox="0 0 1024 1024" version="1.1" xmlns="http://www.w3.org/2000/svg" p-id="4759" xmlns:xlink="http://www.w3.org/1999/xlink" width="200" height="200"><path d="M268.8 920.576c1.536-45.568 38.912-81.92 84.48-81.92h37.888v-70.144h239.104v70.144h37.888c45.568 0 82.944 36.352 84.48 81.92H268.8z m-108.032-192.512c-46.592 0-84.48-37.888-84.48-84.48V188.928c0-46.592 37.888-84.48 84.48-84.48H860.16c46.592 0 84.48 37.888 84.48 84.48v454.656c0 46.592-37.888 84.48-84.48 84.48H160.768z m0-569.344c-16.384 0-30.208 13.824-30.208 30.208v454.656c0 16.384 13.824 30.208 30.208 30.208H860.16c16.384 0 30.208-13.824 30.208-30.208V188.928c0-16.384-13.824-30.208-30.208-30.208H160.768z m337.92 457.728c-6.144 0-11.264-5.12-11.264-11.264v-57.856c0-9.216-7.68-16.896-16.896-16.896h-76.8c-6.144 0-11.264-5.12-11.264-11.264v-18.432c0-6.144 5.12-11.264 11.264-11.264h75.776c8.192 0 15.36-5.632 16.896-13.312 2.048-10.752-6.144-20.48-16.384-20.48H393.728c-6.144 0-11.264-5.12-11.264-11.264v-20.992c0-6.144 5.12-11.264 11.264-11.264h44.032c5.632 0 11.264-2.56 14.336-7.168 3.584-5.632 4.096-12.288 1.024-17.92L374.272 241.152c-2.048-4.096-1.536-8.704 1.024-12.288 2.048-2.56 5.632-4.096 9.216-4.096h29.184c4.096 0 7.68 2.048 9.728 5.632l70.656 131.584 2.56 4.608c2.048 4.608 6.144 8.192 11.264 9.216 7.68 2.048 15.36-1.536 18.944-8.704 1.024-2.56 2.56-5.12 4.096-7.68l66.56-129.536c2.048-3.584 5.632-6.144 9.728-6.144h32.256c3.584 0 7.168 1.536 9.216 4.096 3.072 3.584 3.072 8.192 1.024 12.288l-79.36 146.432c-3.072 5.632-2.56 12.288 1.024 17.92 3.072 4.608 8.704 7.168 14.336 7.168h42.496c6.656 0 11.776 5.12 11.776 11.776v20.48c0 6.144-5.12 11.264-11.264 11.264h-75.264c-8.192 0-15.36 5.632-16.896 13.312-2.048 10.752 6.144 20.48 16.384 20.48h75.264c6.144 0 11.264 5.12 11.264 11.264v18.432c0 6.144-5.12 11.264-11.264 11.264H552.96c-9.216 0-16.896 7.68-16.896 16.896v57.856c0 6.144-5.12 11.264-11.264 11.264h-26.112z" fill="#ED6D2D" p-id="4760"></path></svg>