<?xml version="1.0" standalone="no"?><!DOCTYPE svg PUBLIC "-//W3C//DTD SVG 1.1//EN" "http://www.w3.org/Graphics/SVG/1.1/DTD/svg11.dtd"><svg t="1753319118397" class="icon" viewBox="0 0 1024 1024" version="1.1" xmlns="http://www.w3.org/2000/svg" p-id="6097" xmlns:xlink="http://www.w3.org/1999/xlink" width="200" height="200"><path d="M765.5 641.5h66.7v-196c0-176.5-144.4-321-321-321-176.5 0-321 144.4-321 321v224.8H257V452.1c0-157.6 96.6-260.7 254.3-260.7 157.6 0 254.3 103.1 254.3 260.7v189.4z" fill="#ED6D2D" p-id="6098"></path><path d="M294.1 556.2c-74.4 0-171.6 60.8-171.6 135.2v76.9c0 74.3 97.2 135.2 171.6 135.2h28.6c5.5 0 9.9-4.4 9.9-9.9V566c0-5.5-4.4-9.9-9.9-9.9l-28.6 0.1z m8.8 329c-5.5 0-9.9-4.4-9.9-9.9V583.6c0-5.5 4.4-9.9 9.9-9.9s9.9 4.4 9.9 9.9v291.7c0 5.5-4.4 9.9-9.9 9.9zM729.9 556.2h-28.6c-5.5 0-9.9 4.4-9.9 9.9v327.5c0 5.5 4.4 9.9 9.9 9.9h28.6c74.3 0 171.6-60.8 171.6-135.2v-76.9c0-74.4-97.2-135.2-171.6-135.2z m-10.5 329c-5.5 0-9.9-4.4-9.9-9.9V583.6c0-5.5 4.4-9.9 9.9-9.9s9.9 4.4 9.9 9.9v291.7c0 5.5-4.4 9.9-9.9 9.9z" fill="#ED6D2D" p-id="6099"></path><path d="M302 573.7h1.9c4.9 0 8.9 4 8.9 8.9v293.7c0 4.9-4 8.9-8.9 8.9H302c-4.9 0-8.9-4-8.9-8.9V582.6c-0.1-4.9 3.9-8.9 8.9-8.9z" fill="#ED6D2D" p-id="6100"></path></svg>