<?xml version="1.0" standalone="no"?><!DOCTYPE svg PUBLIC "-//W3C//DTD SVG 1.1//EN" "http://www.w3.org/Graphics/SVG/1.1/DTD/svg11.dtd"><svg t="1753239833828" class="icon" viewBox="0 0 1024 1024" version="1.1" xmlns="http://www.w3.org/2000/svg" p-id="7131" xmlns:xlink="http://www.w3.org/1999/xlink" width="200" height="200"><path d="M845.6704 129.570133c-1.8944-6.894933-4.232533-14.3872-6.570667-22.357333-13.8752-46.933333-40.7552-78.421333-80.042666-94.020267-32.5632-12.885333-68.5056-12.885333-100.0448-12.885333H364.987733c-31.5392 0-67.328 0-99.8912 12.885333-39.304533 15.445333-66.167467 46.933333-79.906133 94.037334-2.338133 8.0896-4.522667 15.445333-6.570667 22.186666-18.978133 64.494933-24.234667 81.885867-24.234666 119.688534 0 38.229333 20.309333 589.994667 21.316266 613.2224 1.8944 54.8864 15.342933 94.481067 41.181867 120.8832 26.146133 26.999467 64.119467 40.0384 116.411733 40.0384h357.9904c52.138667 0 90.282667-13.192533 116.394667-40.0384 25.873067-26.555733 39.304533-66.133333 41.198933-120.8832 0.733867-23.381333 21.333333-575.146667 21.333334-613.376-0.290133-37.7856-5.546667-55.04-24.541867-119.381334z m-40.891733 731.409067c-1.604267 43.042133-10.8032 72.738133-28.484267 90.88-17.527467 18.005333-45.431467 26.845867-85.2992 26.845867H333.0048c-39.867733 0-67.754667-8.840533-85.2992-26.845867-17.664-18.141867-26.88-47.991467-28.484267-90.88-0.290133-5.700267-21.162667-574.242133-21.162666-611.720533 0-31.351467 3.925333-44.253867 22.340266-106.786134 1.8944-6.894933 4.232533-14.250667 6.570667-22.357333 9.9328-33.877333 27.016533-54.442667 53.76-64.9216 24.968533-9.898667 55.1936-9.898667 84.411733-9.898667h293.870934c29.064533 0 59.153067 0 84.2752 9.898667 26.7264 10.496 43.810133 31.197867 53.76 64.938667 2.321067 8.0896 4.522667 15.598933 6.7072 22.493866 18.551467 62.378667 22.357333 75.281067 22.357333 106.632534 0 37.341867-21.0432 605.730133-21.333333 611.720533z" fill="#ED6D2D" p-id="7132"></path><path d="M754.517333 207.701333H269.636267c-12.117333 0-21.9136 10.069333-21.9136 22.510934s9.796267 22.493867 21.9136 22.493866h484.7616c12.117333 0 21.9136-10.069333 21.9136-22.493866a21.9648 21.9648 0 0 0-21.76-22.510934z m0 120.7296H269.636267c-5.973333 0-11.537067 2.389333-15.7696 6.912-4.1984 4.317867-6.434133 10.24-6.144 16.3328 4.386133 131.5328 12.561067 355.4304 18.107733 507.221334 0.733867 23.227733 6.724267 40.618667 17.9712 52.770133 11.537067 12.5952 28.040533 18.8928 49.220267 18.8928h357.9904c21.179733 0 37.6832-6.2976 49.373866-18.8928 11.246933-12.151467 17.083733-29.3888 17.954134-52.7872 5.9904-161.365333 13.8752-380.757333 18.1248-507.3408a21.777067 21.777067 0 0 0-6.144-16.349867 22.6816 22.6816 0 0 0-15.7696-6.7584z m-40.157866 528.7936c-0.426667 11.554133-2.474667 19.5072-5.973334 23.3984-2.935467 3.157333-8.772267 4.8128-17.390933 4.8128H333.0048c-13.8752 0-22.493867-1.365333-23.381333-28.2112-5.393067-143.2064-12.834133-350.481067-17.373867-483.805866h439.5008a121819.648 121819.648 0 0 1-17.390933 483.805866zM607.453867 152.234667a16.008533 16.008533 0 0 0 15.7696-16.196267V116.974933c0-8.840533-6.997333-16.196267-15.7696-16.196266a16.008533 16.008533 0 0 0-15.7696 16.213333v19.182933c0 8.840533 6.997333 16.042667 15.7696 16.042667z m51.541333 0a16.008533 16.008533 0 0 0 15.786667-16.196267V116.974933c0-8.840533-6.997333-16.196267-15.7696-16.196266a15.9232 15.9232 0 0 0-15.7696 16.213333v19.182933c0 8.840533 6.997333 16.042667 15.7696 16.042667z m51.575467 0a16.008533 16.008533 0 0 0 15.7696-16.196267V116.974933c0-8.840533-6.997333-16.196267-15.7696-16.196266a16.0256 16.0256 0 0 0-15.7696 16.213333v19.182933c0 8.840533 7.150933 16.042667 15.7696 16.042667z" fill="#ED6D2D" p-id="7133"></path></svg>