<?xml version="1.0" standalone="no"?><!DOCTYPE svg PUBLIC "-//W3C//DTD SVG 1.1//EN" "http://www.w3.org/Graphics/SVG/1.1/DTD/svg11.dtd"><svg t="1753243203949" class="icon" viewBox="0 0 2048 1024" version="1.1" xmlns="http://www.w3.org/2000/svg" p-id="4479" xmlns:xlink="http://www.w3.org/1999/xlink" width="400" height="200"><path d="M1730.220373 785.066667a82.602667 82.602667 0 1 0-58.026666-24.234667 80.896 80.896 0 0 0 58.026666 24.234667z" p-id="4480" fill="#ED6D2D"></path><path d="M1318.572373 702.464a83.285333 81.92 90 1 0 163.84 0 83.285333 81.92 90 1 0-163.84 0Z" p-id="4481" fill="#ED6D2D"></path><path d="M188.417707 667.306667h964.608v70.997333H188.417707z" p-id="4482" fill="#ED6D2D"></path><path d="M2042.540373 397.994667L1796.780373 0H300.033707L8.193707 393.898667l-8.192 24.917333v474.453333A130.048 130.048 0 0 0 129.025707 1024H1918.29504a130.048 130.048 0 0 0 129.706667-130.730667V419.84z m-1706.666666-326.997334H1757.868373l191.488 310.272h-1843.2z m1641.813333 822.272a59.733333 59.733333 0 0 1-59.050667 59.733334H129.36704a59.733333 59.733333 0 0 1-59.050667-59.733334V452.266667h1907.370667z" p-id="4483" fill="#ED6D2D"></path></svg>