<?xml version="1.0" standalone="no"?><!DOCTYPE svg PUBLIC "-//W3C//DTD SVG 1.1//EN" "http://www.w3.org/Graphics/SVG/1.1/DTD/svg11.dtd"><svg t="1753319462263" class="icon" viewBox="0 0 1024 1024" version="1.1" xmlns="http://www.w3.org/2000/svg" p-id="10698" xmlns:xlink="http://www.w3.org/1999/xlink" width="200" height="200"><path d="M433.066667 697.6l213.333333-215.466667-106.666667-17.066666 53.333334-179.2-215.466667 215.466666 108.8 17.066667z" fill="#ED6D2D" p-id="10699"></path><path d="M896 170.666667H128c-23.466667 0-42.666667 19.2-42.666667 42.666666v554.666667c0 23.466667 19.2 42.666667 42.666667 42.666667h128v53.333333c0 17.066667 14.933333 32 32 32s32-14.933333 32-32V810.666667h384v53.333333c0 17.066667 14.933333 32 32 32s32-14.933333 32-32V810.666667h128c23.466667 0 42.666667-19.2 42.666667-42.666667V213.333333c0-23.466667-19.2-42.666667-42.666667-42.666666z m-21.333333 576H149.333333V234.666667h725.333334v512z" fill="#ED6D2D" p-id="10700"></path></svg>