<?xml version="1.0" standalone="no"?><!DOCTYPE svg PUBLIC "-//W3C//DTD SVG 1.1//EN" "http://www.w3.org/Graphics/SVG/1.1/DTD/svg11.dtd"><svg t="1753319329016" class="icon" viewBox="0 0 1486 1024" version="1.1" xmlns="http://www.w3.org/2000/svg" p-id="9631" xmlns:xlink="http://www.w3.org/1999/xlink" width="290.234375" height="200"><path d="M1188.260735 28.94532v43.180723c0 74.577695-48.024714 138.834724-122.582638 138.834723H412.154464c-74.557924 0-147.830707-64.2768-147.830707-138.834723V32.425085c-67.618165 46.601174-71.493358 58.345382-130.491196 107.200494C43.27958 237.078777 0 360.768613 0 495.530429 0 810.231696 332.396664 1020.362064 740.359592 1020.362064S1479.572444 810.231696 1479.572444 495.530429c0-134.742045-54.173618-258.431881-144.726599-355.885078-55.023787-48.973741-146.58511-110.719802-146.58511-110.719803z m-446.220574 968.79827c-348.490578 0-630.430646-190.279889-630.984245-425.084955-0.158171-69.832561 15.975286-120.605499 56.842756-186.424468 57.33704-51.761508 72.897127-62.596231 124.559777-107.675007h899.183194s94.546803 83.198023 123.887551 106.765523c38.257646 52.908248 57.47544 116.097621 57.47544 186.661724 0 234.725981-282.493667 425.697868-630.964473 425.697869z m0 0" fill="#ED6D2D" p-id="9632"></path><path d="M431.016373 143.362373h627.029966c47.688601 0 62.596231-48.084028 62.596231-95.772629V0.158171c-135.216559-0.71177-653.523633 1.146741-788.740191 3.163423v44.287921c0 47.688601 51.405622 95.772629 99.094223 95.772629z m0 0" fill="#ED6D2D" p-id="9633"></path></svg>