<?xml version="1.0" standalone="no"?><!DOCTYPE svg PUBLIC "-//W3C//DTD SVG 1.1//EN" "http://www.w3.org/Graphics/SVG/1.1/DTD/svg11.dtd"><svg t="1753240049642" class="icon" viewBox="0 0 1024 1024" version="1.1" xmlns="http://www.w3.org/2000/svg" p-id="14143" xmlns:xlink="http://www.w3.org/1999/xlink" width="200" height="200"><path d="M212.122 899.483h607.581v48.423H212.122z" fill="#ED6D2D" p-id="14144"></path><path d="M212.929 476.944h48.423v471.768h-48.423z m290.028 231.347h28.594V822.66h-28.594z m267.518-231.347h48.422v471.768h-48.422zM547.359 110.343L41.923 615.779 6.545 580.401 511.979 74.964z" fill="#ED6D2D" p-id="14145"></path><path d="M981.873 615.787L476.438 110.353l35.38-35.38 505.434 505.434z m-645.195-74.891h357.4v48.421h-357.4z m1.874 165.191h357.402v48.423H338.552z m71.483 89.352h214.436v48.421H410.035z" fill="#ED6D2D" p-id="14146"></path><path d="M336.678 540.843h48.423V755.28h-48.423z m310.045 0.196h48.423v214.44h-48.423zM379.01 473.97s0-131.334 139.53-136.452c0 0 124.927-3.819 133.208 136.452h-27.243s-2.713-108.662-108.925-108.907c0 0-106.47 3.406-108.573 108.907H379.01z" fill="#ED6D2D" p-id="14147"></path><path d="M426.765 500.652s0-85.342 90.667-88.667c0 0 80.427-2.274 86.56 88.667h-24.93s5.851-64.75-63.554-63.543c0 0-63.652-2.11-63.326 63.543h-25.417z" fill="#ED6D2D" p-id="14148"></path></svg>