<?xml version="1.0" standalone="no"?><!DOCTYPE svg PUBLIC "-//W3C//DTD SVG 1.1//EN" "http://www.w3.org/Graphics/SVG/1.1/DTD/svg11.dtd"><svg t="1753240238589" class="icon" viewBox="0 0 1024 1024" version="1.1" xmlns="http://www.w3.org/2000/svg" p-id="19321" xmlns:xlink="http://www.w3.org/1999/xlink" width="200" height="200"><path d="M904.5384 1024H105.596193c-55.905101 0-101.324313-43.486981-101.324313-96.929665 0-26.037992 10.721526-50.49721 30.18522-68.888751 25.166132-23.78765 58.343953-26.921634 69.242208-27.958441l38.432547-3.652388c105.224121-10.014612 384.714277-36.618135 743.166707-69.454282l2.250342-0.200292 2.238561 0.282765c20.524064 2.615581 71.763534 13.431362 104.081276 57.1422 20.029225 27.098363 28.912775 61.265864 25.024749 96.364134-3.85268 34.72125-20.429809 66.190696-45.489903 86.325958-18.203031 14.633116-41.601878 23.905469-67.651652 26.827379z m-17.88492-225.599761c-357.286022 32.730109-635.704026 59.239377-740.680727 69.230426l-38.397201 3.652388c-8.247328 0.777605-29.961364 2.839437-44.771208 16.883458a53.301301 53.301301 0 0 0-17.272261 38.88026c0 30.715405 26.980544 55.704808 60.087674 55.704808h796.585827c17.814228-2.179651 33.472369-8.341583 45.324957-17.873137 16.624256-13.360671 27.675676-34.756596 30.338384-58.720974 2.698054-24.341399-3.534569-48.871308-17.201569-67.309977-21.878982-29.548997-57.566348-38.043745-74.013876-40.447252z" p-id="19322" fill="#ED6D2D"></path><path d="M608.918826 625.669384l30.226456-28.049161L810.832261 782.636061l-30.226456 28.05034z" p-id="19323" fill="#ED6D2D"></path><path d="M532.979788 802.912706L734.912074 89.298531l39.679073 11.228147L572.65886 814.140853z" p-id="19324" fill="#ED6D2D"></path><path d="M494.928974 288.644691a31.280936 31.280936 0 0 1-27.098363-15.622796l-46.750566-80.988758a31.292718 31.292718 0 0 1 11.440221-42.697595L683.993073 4.182573a31.292718 31.292718 0 0 1 42.697594 11.440222l46.727003 80.976977a31.292718 31.292718 0 0 1-11.440222 42.697594L510.516424 284.438553a31.068862 31.068862 0 0 1-15.58745 4.206138z m-33.154258-108.534834l36.747737 63.622243L732.711216 108.534834l-36.747736-63.622243zM653.831417 422.345656H279.591245a20.618319 20.618319 0 0 1 0-41.236639h374.240172a20.618319 20.618319 0 0 1 0 41.236639z" p-id="19325" fill="#ED6D2D"></path></svg>