<?xml version="1.0" standalone="no"?><!DOCTYPE svg PUBLIC "-//W3C//DTD SVG 1.1//EN" "http://www.w3.org/Graphics/SVG/1.1/DTD/svg11.dtd"><svg t="1753240178301" class="icon" viewBox="0 0 1024 1024" version="1.1" xmlns="http://www.w3.org/2000/svg" p-id="16291" xmlns:xlink="http://www.w3.org/1999/xlink" width="200" height="200"><path d="M697.937149 184.205714l-422.045715-1.851428 6.594286-119.085715c0.914286-18.96 15.611429-34.285714 32.8-34.285714h343.165714c17.142857 0 31.885714 15.245714 32.8 34.285714zM282.474291 960.708571c0.914286 18.96 15.611429 34.285714 32.8 34.285715h343.177143c17.142857 0 31.885714-15.257143 32.8-34.285715l6.685715-120.937142-422.068572 1.851428zM434.360006 512a51.76 51.76 0 1 1 51.748571 51.76A51.748571 51.748571 0 0 1 434.360006 512z m0 0" fill="#ED6D2D" p-id="16292"></path><path d="M571.251434 512a56.628571 56.628571 0 1 1 56.64 56.274286A56.445714 56.445714 0 0 1 571.251434 512z m-163.885714-181.142857a56.274286 56.274286 0 1 0 56.628571 56.262857 56.457143 56.457143 0 0 0-56.64-56.274286z m0 249.737143a56.274286 56.274286 0 1 0 56.628571 56.262857A56.457143 56.457143 0 0 0 407.36572 580.571429z" fill="#ED6D2D" p-id="16293"></path><path d="M809.582863 426.731429h-1.245714V227.428571a63.44 63.44 0 0 0-63.451429-63.485714h-19.817143l-5.714286-102.16c-1.668571-34.617143-28.777143-61.714286-61.714285-61.714286H314.531434c-32.925714 0-60.022857 27.177143-61.714285 61.782858l-5.714286 102.114285H227.331434A63.531429 63.531429 0 0 0 163.902863 227.428571v569.142858a63.451429 63.451429 0 0 0 63.44 63.485714h19.817143l5.645714 102.171428c1.657143 34.057143 29.337143 61.714286 61.714286 61.714286h343.165714c32.925714 0 60.034286-27.177143 61.714286-61.782857l5.645714-102.148571h19.862857a63.531429 63.531429 0 0 0 63.428572-63.44V595.702857h1.245714c28.788571 0 50.502857-26.765714 50.502857-62.274286v-44.411428c0-35.508571-21.702857-62.285714-50.502857-62.285714zM310.622863 64.811429c0.217143-4.502857 3.074286-6.857143 3.908571-6.925715h343.154286c0.834286 0.08 3.702857 2.285714 3.931429 6.857143l5.485714 99.154286H305.137149z m350.971428 894.411428c-0.205714 4.571429-3.062857 6.857143-3.885714 6.857143H314.56572c-0.845714-0.114286-3.737143-2.457143-3.954286-6.857143l-5.474285-99.154286h361.942857z m88.868572-162.56a5.542857 5.542857 0 0 1-5.565714 5.554286H227.331434a5.554286 5.554286 0 0 1-5.554285-5.6V227.337143a5.508571 5.508571 0 0 1 1.611428-3.931429 5.6 5.6 0 0 1 3.931429-1.634285h517.577143a5.565714 5.565714 0 0 1 5.565714 5.6zM564.874291 580.571429a56.274286 56.274286 0 1 0 56.64 56.274285A56.457143 56.457143 0 0 0 564.874291 580.571429z m0 78.045714a21.771429 21.771429 0 1 1 22.137143-21.714286 21.954286 21.954286 0 0 1-22.137143 21.725714z m0-327.782857a56.274286 56.274286 0 1 0 56.64 56.274285 56.457143 56.457143 0 0 0-56.64-56.262857z m0 78.045714a21.771429 21.771429 0 1 1 22.137143-21.714286 21.954286 21.954286 0 0 1-22.137143 21.725715z m-220.514285 46.857143A56.274286 56.274286 0 1 0 401.000006 512a56.457143 56.457143 0 0 0-56.64-56.285714z m0 78.045714A21.771429 21.771429 0 1 1 366.497149 512a21.965714 21.965714 0 0 1-22.137143 21.714286z" fill="#ED6D2D" p-id="16294"></path></svg>