<?xml version="1.0" standalone="no"?><!DOCTYPE svg PUBLIC "-//W3C//DTD SVG 1.1//EN" "http://www.w3.org/Graphics/SVG/1.1/DTD/svg11.dtd"><svg t="1759991259307" class="icon" viewBox="0 0 1024 1024" version="1.1" xmlns="http://www.w3.org/2000/svg" p-id="9193" xmlns:xlink="http://www.w3.org/1999/xlink" width="200" height="200"><path d="M102.4 153.6a102.4 102.4 0 0 1 102.4-102.4h640a102.4 102.4 0 0 1 102.4 102.4v742.4a102.4 102.4 0 0 1-102.4 102.4H204.8a102.4 102.4 0 0 1-102.4-102.4V153.6z m102.4-25.6a25.6 25.6 0 0 0-25.6 25.6v742.4a25.6 25.6 0 0 0 25.6 25.6h640a25.6 25.6 0 0 0 25.6-25.6V153.6a25.6 25.6 0 0 0-25.6-25.6H204.8z" p-id="9194" fill="#ed6d2d"></path><path d="M762.112 516.1472a38.4 38.4 0 0 1 5.9904 53.9648l-170.6496 213.3504a38.4 38.4 0 0 1-53.9648 5.9904L436.736 704.1024a38.4 38.4 0 1 1 48.0256-59.9552l76.6464 61.3376 146.688-183.296a38.4 38.4 0 0 1 53.9648-6.0416zM273.0496 332.8a38.4 38.4 0 0 1 38.4-38.4h426.7008a38.4 38.4 0 0 1 0 76.8H311.4496a38.4 38.4 0 0 1-38.4-38.4zM273.0496 503.4496a38.4 38.4 0 0 1 38.4-38.4h170.7008a38.4 38.4 0 0 1 0 76.8H311.4496a38.4 38.4 0 0 1-38.4-38.4z" p-id="9195" fill="#ed6d2d"></path></svg>