<?xml version="1.0" standalone="no"?><!DOCTYPE svg PUBLIC "-//W3C//DTD SVG 1.1//EN" "http://www.w3.org/Graphics/SVG/1.1/DTD/svg11.dtd"><svg t="1754380199887" class="icon" viewBox="0 0 1024 1024" version="1.1" xmlns="http://www.w3.org/2000/svg" p-id="3254" xmlns:xlink="http://www.w3.org/1999/xlink" width="200" height="200"><path d="M512 150c212.077 0 384 171.923 384 384S724.077 918 512 918 128 746.077 128 534s171.923-384 384-384z m0 34c-193.3 0-350 156.7-350 350s156.7 350 350 350 350-156.7 350-350-156.7-350-350-350z m0 6c29.843 0 56.722 12.692 75.533 32.973C727.813 256.913 832 383.289 832 534c0 176.731-143.269 320-320 320S192 710.731 192 534c0-150.711 104.188-277.088 244.466-311.034C455.278 202.692 482.156 190 512 190zM270.996 362.108C236.373 410.565 216 469.904 216 534c0 163.476 132.524 296 296 296s296-132.524 296-296c0-63.266-19.849-121.897-53.658-170.004l-167.721 0.002C567.858 383.712 541.364 396 512 396c-29.363 0-55.856-12.287-74.619-32H271l-0.004-1.892zM512 608c35.346 0 64 28.654 64 64v64c0 35.346-28.654 64-64 64-35.346 0-64-28.654-64-64v-64c0-35.346 28.654-64 64-64z m0 34c-16.403 0-29.731 13.164-29.996 29.504L482 672v64c0 16.569 13.431 30 30 30 16.403 0 29.731-13.164 29.996-29.504L542 736v-64c0-16.569-13.431-30-30-30z m40.442-293.088l0.235-0.171c0.39-0.286 0.778-0.575 1.162-0.869l0.657-0.507a69.32 69.32 0 0 0 1.117-0.893l0.43-0.354a69.38 69.38 0 0 0 1.571-1.345l0.788-0.705 0.777-0.717 0.757-0.72 0.925-0.911 0.375-0.38 0.27-0.276 0.715-0.748 0.826-0.89 0.578-0.645 0.83-0.952 0.473-0.561 0.552-0.666 0.184-0.225a69.292 69.292 0 0 0 1.948-2.525l0.183-0.25c0.213-0.291 0.423-0.585 0.631-0.88l0.44-0.63c0.272-0.395 0.54-0.793 0.804-1.194l0.392-0.602C576.984 319.542 581 306.74 581 293c0-21.486-9.82-40.679-25.218-53.333l-0.469-0.382a69.306 69.306 0 0 0-1.674-1.31l-0.853-0.636-0.822-0.594a69.162 69.162 0 0 0-1.773-1.22l-0.9-0.59-1.042-0.658-0.421-0.258-0.538-0.323-0.737-0.435-0.893-0.508-1.072-0.587-0.463-0.247-0.64-0.333-0.643-0.326c-0.638-0.32-1.282-0.63-1.931-0.93l-1.188-0.535-0.742-0.32-1.231-0.51-0.783-0.31c-0.459-0.178-0.92-0.35-1.383-0.52l-0.805-0.287a68.475 68.475 0 0 0-1.141-0.387l-1.011-0.325-0.822-0.252c-0.454-0.135-0.91-0.266-1.367-0.393l-0.687-0.186c-0.471-0.125-0.944-0.245-1.418-0.36l-0.714-0.17-0.979-0.218-0.798-0.168-0.905-0.178-0.538-0.1a68.78 68.78 0 0 0-1.454-0.248l-0.731-0.112a68.97 68.97 0 0 0-1.407-0.194l-1.036-0.124-0.9-0.095-0.754-0.07-0.525-0.045-0.824-0.061-0.65-0.041-0.886-0.047-0.802-0.032-0.794-0.023-0.57-0.01L512 224l-1.21 0.01-0.926 0.022-0.293 0.01-1.084 0.046-0.605 0.033-1.08 0.072-1.075 0.088-0.599 0.057-0.899 0.095c-0.504 0.056-1.007 0.118-1.508 0.185l-0.75 0.106-1.042 0.16-1.036 0.175-0.304 0.054-0.817 0.154-0.614 0.122-0.523 0.108-0.689 0.15-0.397 0.09a68.53 68.53 0 0 0-1.38 0.33l-0.686 0.176c-0.471 0.123-0.94 0.252-1.408 0.385l-0.699 0.203-1.004 0.305-0.203 0.064c-0.379 0.12-0.756 0.243-1.132 0.369l-0.701 0.24-0.84 0.298-0.504 0.184-0.48 0.18-0.479 0.185-0.783 0.309a68.564 68.564 0 0 0-3.958 1.74l-0.995 0.485-0.923 0.468-1.072 0.566-0.771 0.423-0.92 0.52-0.697 0.407-0.708 0.425-0.726 0.447-0.662 0.419-0.885 0.577-1.009 0.681-0.749 0.523-0.761 0.547c-0.341 0.248-0.68 0.5-1.016 0.754l-0.885 0.681-0.427 0.337-0.425 0.34-0.42 0.343-0.655 0.545-0.555 0.472-0.391 0.339-0.298 0.261C452.027 253.908 443 272.4 443 293c0 14.206 4.293 27.409 11.652 38.383l0.482 0.708c0.23 0.334 0.462 0.665 0.698 0.995l0.508 0.7 0.299 0.405c0.29 0.39 0.586 0.778 0.885 1.162l0.68 0.858 0.316 0.391 0.32 0.39 0.482 0.575 0.223 0.262 0.698 0.804 0.71 0.792 0.714 0.772 0.724 0.761 0.748 0.762 0.76 0.75 0.855 0.816 0.673 0.626a69.4 69.4 0 0 0 1.857 1.64l0.673 0.566c0.295 0.245 0.593 0.487 0.892 0.727l0.656 0.52 0.796 0.614 1.023 0.762 0.688 0.497a69.121 69.121 0 0 0 3.476 2.321l0.742 0.457 0.423 0.255 0.703 0.414 0.294 0.17 0.81 0.459 0.47 0.26 0.835 0.448 0.321 0.169 0.575 0.298 0.47 0.238 0.644 0.318 0.485 0.234 0.738 0.348 0.271 0.125 0.496 0.225 0.27 0.12c0.434 0.193 0.87 0.382 1.31 0.566l0.87 0.358 0.844 0.333 0.689 0.263 0.788 0.29 0.832 0.296 0.711 0.242 0.247 0.082 0.821 0.266 0.961 0.296 0.224 0.067 0.895 0.26 0.717 0.198 0.553 0.147 0.499 0.128 0.59 0.145 0.656 0.157 0.848 0.194 0.898 0.191 0.864 0.173 1.148 0.21 0.962 0.162 0.983 0.152 1.123 0.154 1.009 0.123 0.69 0.075 0.622 0.061 1.095 0.096 1.252 0.087 0.965 0.054 0.84 0.034 0.83 0.024 0.396 0.008c0.41 0.007 0.821 0.011 1.233 0.011l1.234-0.01 1.225-0.033 0.84-0.034 1.155-0.064 1.072-0.077 1.383-0.124 0.508-0.052 1.08-0.124 0.739-0.096 0.906-0.126 0.56-0.085 0.715-0.117 0.715-0.122 0.329-0.058 0.687-0.13 0.864-0.172 0.609-0.129 1.064-0.238 0.662-0.159 0.657-0.161 0.696-0.18 0.538-0.145 0.9-0.253 0.697-0.205 0.834-0.255 0.326-0.105 0.926-0.3 0.711-0.243 0.832-0.295 0.505-0.185 0.973-0.369 0.527-0.207 0.316-0.126a68.57 68.57 0 0 0 1.953-0.823l0.497-0.22 0.677-0.31 0.829-0.389 1.128-0.552 0.47-0.238 0.756-0.392 0.71-0.38 0.866-0.477 0.634-0.361 0.754-0.437 0.711-0.426 0.589-0.363 0.729-0.458a69.13 69.13 0 0 0 2.633-1.768l0.721-0.515z m54.77-95.266l0.308 0.746C612.344 266.315 615 279.348 615 293c0 13.04-2.423 25.514-6.844 36.996l118.316-0.001c-32.641-34.306-73.428-60.789-119.26-76.349z m-190.427 0l-0.558 0.191c-45.603 15.585-86.19 41.992-118.7 76.158h118.317C411.424 318.515 409 306.04 409 293c0-13.938 2.768-27.23 7.785-39.354z" fill="#ed6d2d" p-id="3255"></path><path d="M512 557m-17 0a17 17 0 1 0 34 0 17 17 0 1 0-34 0Z" fill="#ed6d2d" p-id="3256"></path><path d="M379 107c9.389 0 17 7.611 17 17 0 8.123-5.698 14.916-13.315 16.6l1.31-0.432a412.193 412.193 0 0 0-96.35 45.835l21.103 30.14a8 8 0 0 1-1.964 11.142l-14.745 10.324a8 8 0 0 1-11.142-1.965l-21.031-30.036a416.466 416.466 0 0 0-72.386 71.3C184.488 281.764 179.122 285 173 285c-9.389 0-17-7.611-17-17a16.92 16.92 0 0 1 2.784-9.325c0.119-0.341 0.302-0.67 0.55-0.986 54.367-69.293 128.713-122.163 214.364-149.934a0.72 0.72 0 0 1 0.353-0.024A17.01 17.01 0 0 1 379 107z m266 0c1.683 0 3.31 0.245 4.845 0.7a0.705 0.705 0 0 1 0.355 0.022c85.773 27.787 160.215 80.743 214.616 150.159 0.265 0.338 0.454 0.69 0.57 1.055A16.924 16.924 0 0 1 868 268c0 9.389-7.611 17-17 17-6.122 0-11.489-3.236-14.482-8.091l0.86 1.084a416.463 416.463 0 0 0-73.35-72.467l-21.09 30.118a8 8 0 0 1-10.92 2.116l-0.222-0.151-14.745-10.324a8 8 0 0 1-2.116-10.919l0.151-0.223 21.156-30.213a412.214 412.214 0 0 0-94.924-45.333C633.699 138.917 628 132.124 628 124c0-9.389 7.611-17 17-17z" fill="#ed6d2d" p-id="3257"></path></svg>